<svg width="255" height="75" viewBox="0 0 255 75" fill="none" xmlns="http://www.w3.org/2000/svg">
<rect opacity="0.8" x="4" y="4" width="247" height="67" rx="4" fill="url(#paint0_linear_3_16)" stroke="black" stroke-width="8"/>
<path d="M15.5 47V19H39.5V23H43.5V35H35.5V39H39.5V43H43.5V47H31.5V43H27.5V39H23.5V47H15.5ZM23.5 35H31.5V31H35.5V23H23.5V35ZM51.5 47V43H47.5V31H51.5V27H71.5V31H75.5V39H55.5V43H71.5V47H51.5ZM55.5 35H67.5V31H55.5V35ZM79.5 47V43H99.5V39H83.5V35H79.5V31H83.5V27H103.5V31H87.5V35H103.5V39H107.5V43H103.5V47H79.5ZM123.5 47V31H115.5V27H123.5V19H131.5V27H139.5V31H131.5V47H123.5ZM147.5 47V43H143.5V39H147.5V35H163.5V31H147.5V27H167.5V31H171.5V47H147.5ZM151.5 43H163.5V39H151.5V43ZM187.5 31H191.5V35H187.5V47H179.5V27H187.5V31ZM203.5 27V31H191.5V27H203.5ZM219.5 47V31H211.5V27H219.5V19H227.5V27H235.5V31H227.5V47H219.5Z" fill="black"/>
<defs>
<linearGradient id="paint0_linear_3_16" x1="127.187" y1="75" x2="127.187" y2="2.91001e-06" gradientUnits="userSpaceOnUse">
<stop stop-color="#008716"/>
<stop offset="1" stop-color="#C4C4C4" stop-opacity="0"/>
</linearGradient>
</defs>
</svg>
